<?xml version="1.0" encoding="utf-8"?>
<!-- Generator: Adobe Illustrator 17.0.0, SVG Export Plug-In . SVG Version: 6.00 Build 0)  -->
<!DOCTYPE svg PUBLIC "-//W3C//DTD SVG 1.1//EN" "http://www.w3.org/Graphics/SVG/1.1/DTD/svg11.dtd">
<svg version="1.1" id="图层_1" xmlns="http://www.w3.org/2000/svg" xmlns:xlink="http://www.w3.org/1999/xlink" x="0px" y="0px"
	 width="184.373px" height="33.148px" viewBox="0 0 184.373 33.148" enable-background="new 0 0 184.373 33.148"
	 xml:space="preserve">
<g>
	<path fill="#FFFFFF" d="M1.258,25.693V2.954h7.934c2.78,0,5.07,0.888,6.872,2.663c1.801,1.775,2.702,4.053,2.702,6.833v3.764
		c0,2.791-0.901,5.068-2.702,6.832c-1.801,1.765-4.092,2.647-6.872,2.647H1.258z M5.818,6.468v15.727h3.373
		c1.499,0,2.707-0.56,3.623-1.679c0.916-1.119,1.374-2.554,1.374-4.303v-3.795c0-1.738-0.458-3.165-1.374-4.279
		c-0.916-1.114-2.124-1.671-3.623-1.671H5.818z"/>
	<path fill="#FFFFFF" d="M32.04,25.693c-0.167-0.385-0.31-0.791-0.429-1.218c-0.12-0.427-0.206-0.864-0.258-1.312
		c-0.469,0.822-1.088,1.504-1.858,2.046c-0.771,0.541-1.687,0.812-2.749,0.812c-1.77,0-3.134-0.456-4.092-1.367
		c-0.958-0.911-1.437-2.152-1.437-3.724c0-1.655,0.638-2.939,1.913-3.85c1.275-0.911,3.136-1.366,5.583-1.366h2.561V14.37
		c0-0.812-0.214-1.442-0.64-1.89c-0.427-0.448-1.062-0.671-1.905-0.671c-0.739,0-1.31,0.18-1.71,0.539
		c-0.401,0.359-0.601,0.851-0.601,1.476h-4.388l-0.031-0.094c-0.073-1.426,0.549-2.657,1.866-3.694
		c1.317-1.036,3.038-1.554,5.162-1.554c2.03,0,3.673,0.51,4.927,1.531s1.882,2.483,1.882,4.388v6.981c0,0.791,0.06,1.536,0.18,2.233
		c0.12,0.698,0.31,1.39,0.57,2.077H32.04z M27.87,22.647c0.791,0,1.499-0.198,2.124-0.594c0.625-0.396,1.052-0.853,1.281-1.374
		v-2.39h-2.561c-0.968,0-1.7,0.24-2.194,0.719c-0.495,0.479-0.742,1.068-0.742,1.765c0,0.573,0.185,1.029,0.554,1.367
		C26.701,22.478,27.214,22.647,27.87,22.647z"/>
	<path fill="#FFFFFF" d="M44.049,4.75h-4.56V1.33h4.56V4.75z M44.049,25.693h-4.56V8.795h4.56V25.693z"/>
	<path fill="#FFFFFF" d="M52.592,25.693h-4.56V1.33h4.56V25.693z"/>
	<path fill="#FFFFFF" d="M62.431,18.602l0.188,0.937h0.094l3.233-10.745h4.904l-6.856,19.428c-0.479,1.208-1.13,2.226-1.952,3.054
		c-0.823,0.827-2.056,1.241-3.701,1.241c-0.385,0-0.742-0.031-1.07-0.094c-0.328-0.062-0.726-0.151-1.195-0.265l0.531-3.327
		c0.135,0.021,0.281,0.042,0.437,0.063c0.156,0.021,0.297,0.031,0.422,0.031c0.75,0,1.328-0.185,1.733-0.554
		c0.406-0.37,0.719-0.831,0.937-1.382l0.531-1.312L54.669,8.795h4.904L62.431,18.602z"/>
	<path fill="#FFFFFF" d="M92.744,19.711h0.093l5.841-16.758h5.951v22.739h-4.56V10.169l-0.094-0.016l-5.622,15.539H91.26
		l-5.622-15.57l-0.094,0.016v15.555h-4.56V2.954h5.981L92.744,19.711z"/>
	<path fill="#FFFFFF" d="M118.434,25.693c-0.166-0.385-0.31-0.791-0.429-1.218c-0.119-0.427-0.205-0.864-0.257-1.312
		c-0.468,0.822-1.088,1.504-1.858,2.046c-0.771,0.541-1.687,0.812-2.749,0.812c-1.77,0-3.133-0.456-4.091-1.367
		c-0.958-0.911-1.437-2.152-1.437-3.724c0-1.655,0.638-2.939,1.913-3.85c1.275-0.911,3.136-1.366,5.583-1.366h2.561V14.37
		c0-0.812-0.213-1.442-0.64-1.89c-0.427-0.448-1.062-0.671-1.905-0.671c-0.74,0-1.31,0.18-1.71,0.539
		c-0.401,0.359-0.602,0.851-0.602,1.476h-4.388l-0.032-0.094c-0.073-1.426,0.549-2.657,1.867-3.694
		c1.317-1.036,3.037-1.554,5.162-1.554c2.03,0,3.672,0.51,4.927,1.531c1.255,1.02,1.882,2.483,1.882,4.388v6.981
		c0,0.791,0.059,1.536,0.179,2.233c0.12,0.698,0.31,1.39,0.57,2.077H118.434z M114.265,22.647c0.791,0,1.499-0.198,2.124-0.594
		c0.625-0.396,1.052-0.853,1.281-1.374v-2.39h-2.561c-0.968,0-1.7,0.24-2.195,0.719c-0.494,0.479-0.742,1.068-0.742,1.765
		c0,0.573,0.185,1.029,0.555,1.367C113.095,22.478,113.609,22.647,114.265,22.647z"/>
	<path fill="#FFFFFF" d="M134.786,21.008c0-0.5-0.242-0.929-0.726-1.288c-0.484-0.36-1.382-0.674-2.694-0.945
		c-1.978-0.396-3.48-0.994-4.506-1.796c-1.025-0.801-1.538-1.889-1.538-3.264c0-1.447,0.614-2.681,1.843-3.701
		c1.229-1.02,2.863-1.531,4.904-1.531c2.134,0,3.844,0.51,5.13,1.531c1.286,1.02,1.903,2.291,1.851,3.81l-0.031,0.094h-4.404
		c0-0.677-0.219-1.229-0.656-1.656c-0.437-0.427-1.067-0.64-1.889-0.64c-0.729,0-1.307,0.182-1.734,0.547
		c-0.427,0.365-0.64,0.812-0.64,1.343c0,0.521,0.221,0.945,0.664,1.273c0.442,0.328,1.34,0.622,2.694,0.882
		c2.071,0.417,3.615,1.028,4.631,1.835c1.015,0.807,1.523,1.919,1.523,3.334c0,1.52-0.651,2.764-1.952,3.733
		c-1.302,0.968-3.02,1.452-5.154,1.452c-2.249,0-4.027-0.57-5.333-1.71c-1.307-1.14-1.929-2.439-1.867-3.896l0.032-0.094h4.169
		c0.031,0.906,0.328,1.562,0.89,1.968c0.563,0.406,1.296,0.609,2.202,0.609c0.843,0,1.486-0.169,1.929-0.508
		C134.564,22.051,134.786,21.591,134.786,21.008z"/>
	<path fill="#FFFFFF" d="M152.105,25.693c-0.166-0.385-0.31-0.791-0.429-1.218c-0.119-0.427-0.205-0.864-0.257-1.312
		c-0.468,0.822-1.088,1.504-1.858,2.046c-0.771,0.541-1.687,0.812-2.749,0.812c-1.77,0-3.133-0.456-4.091-1.367
		c-0.958-0.911-1.437-2.152-1.437-3.724c0-1.655,0.638-2.939,1.913-3.85c1.275-0.911,3.136-1.366,5.583-1.366h2.561V14.37
		c0-0.812-0.213-1.442-0.64-1.89c-0.427-0.448-1.062-0.671-1.905-0.671c-0.74,0-1.31,0.18-1.71,0.539
		c-0.401,0.359-0.602,0.851-0.602,1.476h-4.388l-0.032-0.094c-0.073-1.426,0.549-2.657,1.867-3.694
		c1.317-1.036,3.038-1.554,5.162-1.554c2.03,0,3.672,0.51,4.927,1.531c1.255,1.02,1.882,2.483,1.882,4.388v6.981
		c0,0.791,0.059,1.536,0.179,2.233c0.12,0.698,0.31,1.39,0.57,2.077H152.105z M147.936,22.647c0.791,0,1.499-0.198,2.124-0.594
		c0.625-0.396,1.052-0.853,1.281-1.374v-2.39h-2.561c-0.968,0-1.7,0.24-2.195,0.719c-0.494,0.479-0.742,1.068-0.742,1.765
		c0,0.573,0.185,1.029,0.555,1.367C146.767,22.478,147.28,22.647,147.936,22.647z"/>
	<path fill="#FFFFFF" d="M164.115,25.693h-4.561V1.33h4.561V25.693z"/>
	<path fill="#FFFFFF" d="M177.827,25.693c-0.166-0.385-0.31-0.791-0.429-1.218c-0.119-0.427-0.205-0.864-0.257-1.312
		c-0.468,0.822-1.088,1.504-1.858,2.046c-0.771,0.541-1.687,0.812-2.749,0.812c-1.77,0-3.133-0.456-4.091-1.367
		c-0.958-0.911-1.437-2.152-1.437-3.724c0-1.655,0.638-2.939,1.913-3.85c1.275-0.911,3.136-1.366,5.583-1.366h2.561V14.37
		c0-0.812-0.213-1.442-0.64-1.89c-0.427-0.448-1.062-0.671-1.905-0.671c-0.74,0-1.31,0.18-1.71,0.539
		c-0.401,0.359-0.602,0.851-0.602,1.476h-4.388l-0.032-0.094c-0.073-1.426,0.549-2.657,1.867-3.694
		c1.317-1.036,3.038-1.554,5.162-1.554c2.03,0,3.672,0.51,4.927,1.531c1.255,1.02,1.882,2.483,1.882,4.388v6.981
		c0,0.791,0.059,1.536,0.179,2.233c0.12,0.698,0.31,1.39,0.57,2.077H177.827z M173.657,22.647c0.791,0,1.499-0.198,2.124-0.594
		c0.625-0.396,1.052-0.853,1.281-1.374v-2.39h-2.561c-0.968,0-1.7,0.24-2.195,0.719c-0.494,0.479-0.742,1.068-0.742,1.765
		c0,0.573,0.185,1.029,0.555,1.367C172.488,22.478,173.001,22.647,173.657,22.647z"/>
</g>
</svg>
