<?xml version="1.0" encoding="utf-8"?>
<!-- Generator: Adobe Illustrator 17.0.0, SVG Export Plug-In . SVG Version: 6.00 Build 0)  -->
<!DOCTYPE svg PUBLIC "-//W3C//DTD SVG 1.1//EN" "http://www.w3.org/Graphics/SVG/1.1/DTD/svg11.dtd">
<svg version="1.1" id="图层_1" xmlns="http://www.w3.org/2000/svg" xmlns:xlink="http://www.w3.org/1999/xlink" x="0px" y="0px"
	 width="600px" height="600px" viewBox="0 0 600 600" enable-background="new 0 0 600 600" xml:space="preserve">
<g>
	<path fill="#FFFFFF" d="M3.385,83.185h120.29c10.071,22.379,18.646,40.659,25.736,54.83c7.085,14.175,15.666,30.772,25.736,49.794
		l78.608,145.747c19.394,35.063,35.619,61.359,48.675,78.888c10.814-17.528,27.975-48.859,51.473-93.994l71.614-134.557
		c20.514-38.976,36.179-72.545,46.997-100.708h119.73v2.797l-74.412,10.351c-1.118,16.413-1.678,32.826-1.678,49.235
		c0,17.161,1.63,52.268,4.896,105.323c3.261,53.06,7.225,102.483,11.889,148.264c4.659,45.786,8.952,72.781,12.868,80.985
		l51.473,9.791v2.798H405.377v-2.798l66.578-9.791c1.491-14.17,2.238-33.289,2.238-57.347c0-13.24-0.468-30.536-1.398-51.893
		c-0.936-21.353-2.378-45.878-4.336-73.573c-1.959-27.694-4.336-53.291-7.134-76.79s-5.411-39.348-7.833-47.556
		c-8.768,13.987-17.903,30.028-27.415,48.116l-108.82,203.933c-17.16,33.386-28.629,57.256-34.408,71.614h-3.916
		c-3.917-8.575-10.63-22.283-20.142-41.122c-9.511-18.834-17.161-33.569-22.939-44.199l-91.196-168.965
		c-15.482-28.717-28.254-51.656-38.325-68.817c-1.307,7.461-3.265,24.434-5.875,50.914c-2.614,26.484-5.083,55.206-7.413,86.161
		c-2.334,30.96-4.104,57.348-5.315,79.168c-1.215,21.819-1.818,38.98-1.818,51.473c0,8.768,0.372,21.54,1.119,38.325l53.151,10.35
		v2.798H2.826v-2.798l53.151-10.35c2.609-7.833,6.154-33.661,10.63-77.489c4.476-43.824,8.393-88.91,11.75-135.256
		c3.357-46.341,5.035-79.867,5.035-100.567c0-7.273-0.376-18.555-1.119-33.849c-5.412-11.19-15.854-23.219-31.332-36.087
		L3.385,85.982V83.185z M73.041,94.095l202.255,373.458l9.791-19.022L92.623,94.095H73.041z M480.627,112.278l-16.225,32.73
		l24.617,336.811h20.142l-27.415-369.541H480.627z"/>
</g>
</svg>
